<mxfile host="app.diagrams.net" modified="2020-11-05T07:50:09.673Z" agent="5.0 (Windows NT 10.0; Win64; x64) AppleWebKit/537.36 (KHTML, like Gecko) Chrome/86.0.4240.111 Safari/537.36" etag="ibyT2KlVT0Ept0j0OvWv" version="13.9.1" type="github">
  <diagram id="Y2ApiTfD9mo3m8PPAAE7" name="Page-1">
    <mxGraphModel dx="1185" dy="635" grid="1" gridSize="10" guides="1" tooltips="1" connect="1" arrows="1" fold="1" page="1" pageScale="1" pageWidth="827" pageHeight="1169" math="0" shadow="0">
      <root>
        <mxCell id="0" />
        <mxCell id="1" parent="0" />
        <mxCell id="oiUOhZs4d3MyHZ9kf1-n-3" style="edgeStyle=orthogonalEdgeStyle;rounded=0;orthogonalLoop=1;jettySize=auto;html=1;exitX=0.5;exitY=1;exitDx=0;exitDy=0;strokeWidth=3;" parent="1" source="oiUOhZs4d3MyHZ9kf1-n-1" target="oiUOhZs4d3MyHZ9kf1-n-2" edge="1">
          <mxGeometry relative="1" as="geometry" />
        </mxCell>
        <mxCell id="oiUOhZs4d3MyHZ9kf1-n-1" value="GDM点击流&lt;br&gt;ja2015_311210_cl&lt;br&gt;mo_j2011_1_cl&lt;br&gt;other.000000&lt;span&gt; &lt;/span&gt;&lt;br&gt;&lt;span&gt; &lt;/span&gt;" style="shape=parallelogram;perimeter=parallelogramPerimeter;whiteSpace=wrap;html=1;fixedSize=1;" parent="1" vertex="1">
          <mxGeometry x="160" y="80" width="170" height="60" as="geometry" />
        </mxCell>
        <mxCell id="oiUOhZs4d3MyHZ9kf1-n-7" value="" style="edgeStyle=orthogonalEdgeStyle;rounded=0;orthogonalLoop=1;jettySize=auto;html=1;strokeWidth=3;" parent="1" source="oiUOhZs4d3MyHZ9kf1-n-2" target="oiUOhZs4d3MyHZ9kf1-n-6" edge="1">
          <mxGeometry relative="1" as="geometry" />
        </mxCell>
        <mxCell id="oiUOhZs4d3MyHZ9kf1-n-2" value="JRC&lt;br&gt;babel-click" style="ellipse;whiteSpace=wrap;html=1;aspect=fixed;" parent="1" vertex="1">
          <mxGeometry x="215" y="170" width="60" height="60" as="geometry" />
        </mxCell>
        <mxCell id="oiUOhZs4d3MyHZ9kf1-n-15" style="edgeStyle=orthogonalEdgeStyle;rounded=0;orthogonalLoop=1;jettySize=auto;html=1;exitX=0.5;exitY=1;exitDx=0;exitDy=0;entryX=0.389;entryY=0.028;entryDx=0;entryDy=0;entryPerimeter=0;strokeWidth=2;" parent="1" source="oiUOhZs4d3MyHZ9kf1-n-6" target="oiUOhZs4d3MyHZ9kf1-n-14" edge="1">
          <mxGeometry relative="1" as="geometry" />
        </mxCell>
        <mxCell id="oiUOhZs4d3MyHZ9kf1-n-6" value="通天塔点击&lt;br&gt;promo-resource-babel-click" style="shape=parallelogram;perimeter=parallelogramPerimeter;whiteSpace=wrap;html=1;fixedSize=1;" parent="1" vertex="1">
          <mxGeometry x="150" y="270" width="190" height="40" as="geometry" />
        </mxCell>
        <mxCell id="oiUOhZs4d3MyHZ9kf1-n-11" style="edgeStyle=orthogonalEdgeStyle;rounded=0;orthogonalLoop=1;jettySize=auto;html=1;exitX=0.5;exitY=1;exitDx=0;exitDy=0;entryX=0.5;entryY=0;entryDx=0;entryDy=0;strokeWidth=3;" parent="1" source="oiUOhZs4d3MyHZ9kf1-n-8" target="oiUOhZs4d3MyHZ9kf1-n-10" edge="1">
          <mxGeometry relative="1" as="geometry" />
        </mxCell>
        <mxCell id="oiUOhZs4d3MyHZ9kf1-n-8" value="GDM点击流&lt;br&gt;ja2015_311210_cl&lt;br&gt;mo_j2011_1_cl&lt;span&gt;&amp;nbsp;&lt;/span&gt;&lt;br&gt;&lt;span&gt; &lt;/span&gt;" style="shape=parallelogram;perimeter=parallelogramPerimeter;whiteSpace=wrap;html=1;fixedSize=1;" parent="1" vertex="1">
          <mxGeometry x="380" y="85" width="170" height="50" as="geometry" />
        </mxCell>
        <mxCell id="oiUOhZs4d3MyHZ9kf1-n-13" value="" style="edgeStyle=orthogonalEdgeStyle;rounded=0;orthogonalLoop=1;jettySize=auto;html=1;strokeWidth=3;" parent="1" source="oiUOhZs4d3MyHZ9kf1-n-10" target="oiUOhZs4d3MyHZ9kf1-n-12" edge="1">
          <mxGeometry relative="1" as="geometry" />
        </mxCell>
        <mxCell id="oiUOhZs4d3MyHZ9kf1-n-10" value="JRC&lt;br&gt;ol_click" style="ellipse;whiteSpace=wrap;html=1;aspect=fixed;" parent="1" vertex="1">
          <mxGeometry x="435" y="170" width="60" height="60" as="geometry" />
        </mxCell>
        <mxCell id="oiUOhZs4d3MyHZ9kf1-n-16" style="edgeStyle=orthogonalEdgeStyle;rounded=0;orthogonalLoop=1;jettySize=auto;html=1;exitX=0.5;exitY=1;exitDx=0;exitDy=0;entryX=0.653;entryY=0.028;entryDx=0;entryDy=0;entryPerimeter=0;strokeWidth=3;" parent="1" source="oiUOhZs4d3MyHZ9kf1-n-12" target="oiUOhZs4d3MyHZ9kf1-n-14" edge="1">
          <mxGeometry relative="1" as="geometry" />
        </mxCell>
        <mxCell id="oiUOhZs4d3MyHZ9kf1-n-12" value="全平台点击&lt;br&gt;promo_resource_ol_click" style="shape=parallelogram;perimeter=parallelogramPerimeter;whiteSpace=wrap;html=1;fixedSize=1;" parent="1" vertex="1">
          <mxGeometry x="377.5" y="270" width="175" height="40" as="geometry" />
        </mxCell>
        <mxCell id="oiUOhZs4d3MyHZ9kf1-n-18" style="edgeStyle=orthogonalEdgeStyle;rounded=0;orthogonalLoop=1;jettySize=auto;html=1;exitX=0.5;exitY=1;exitDx=0;exitDy=0;entryX=0.5;entryY=0;entryDx=0;entryDy=0;" parent="1" source="oiUOhZs4d3MyHZ9kf1-n-14" target="oiUOhZs4d3MyHZ9kf1-n-17" edge="1">
          <mxGeometry relative="1" as="geometry" />
        </mxCell>
        <mxCell id="oiUOhZs4d3MyHZ9kf1-n-14" value="JRC&lt;br&gt;resource-click" style="ellipse;whiteSpace=wrap;html=1;aspect=fixed;" parent="1" vertex="1">
          <mxGeometry x="320" y="360" width="60" height="60" as="geometry" />
        </mxCell>
        <mxCell id="oiUOhZs4d3MyHZ9kf1-n-25" style="edgeStyle=orthogonalEdgeStyle;rounded=0;orthogonalLoop=1;jettySize=auto;html=1;exitX=0.5;exitY=1;exitDx=0;exitDy=0;entryX=0.319;entryY=0.056;entryDx=0;entryDy=0;entryPerimeter=0;" parent="1" source="oiUOhZs4d3MyHZ9kf1-n-17" target="oiUOhZs4d3MyHZ9kf1-n-19" edge="1">
          <mxGeometry relative="1" as="geometry" />
        </mxCell>
        <mxCell id="oiUOhZs4d3MyHZ9kf1-n-17" value="大促资源包点击&lt;br&gt;promo-resource-click" style="shape=parallelogram;perimeter=parallelogramPerimeter;whiteSpace=wrap;html=1;fixedSize=1;" parent="1" vertex="1">
          <mxGeometry x="255" y="450" width="190" height="40" as="geometry" />
        </mxCell>
        <mxCell id="oiUOhZs4d3MyHZ9kf1-n-28" style="edgeStyle=orthogonalEdgeStyle;rounded=0;orthogonalLoop=1;jettySize=auto;html=1;exitX=0.5;exitY=1;exitDx=0;exitDy=0;entryX=0.5;entryY=0;entryDx=0;entryDy=0;" parent="1" source="oiUOhZs4d3MyHZ9kf1-n-19" target="oiUOhZs4d3MyHZ9kf1-n-27" edge="1">
          <mxGeometry relative="1" as="geometry" />
        </mxCell>
        <mxCell id="oiUOhZs4d3MyHZ9kf1-n-36" style="edgeStyle=orthogonalEdgeStyle;rounded=0;orthogonalLoop=1;jettySize=auto;html=1;exitX=0.042;exitY=0.333;exitDx=0;exitDy=0;startArrow=classic;startFill=1;exitPerimeter=0;" parent="1" source="oiUOhZs4d3MyHZ9kf1-n-19" target="oiUOhZs4d3MyHZ9kf1-n-35" edge="1">
          <mxGeometry relative="1" as="geometry" />
        </mxCell>
        <mxCell id="oiUOhZs4d3MyHZ9kf1-n-19" value="JRC&lt;br&gt;resource_track" style="ellipse;whiteSpace=wrap;html=1;aspect=fixed;" parent="1" vertex="1">
          <mxGeometry x="550" y="580" width="60" height="60" as="geometry" />
        </mxCell>
        <mxCell id="oiUOhZs4d3MyHZ9kf1-n-22" style="edgeStyle=orthogonalEdgeStyle;rounded=0;orthogonalLoop=1;jettySize=auto;html=1;exitX=0.5;exitY=1;exitDx=0;exitDy=0;entryX=0.5;entryY=0;entryDx=0;entryDy=0;strokeWidth=3;" parent="1" source="oiUOhZs4d3MyHZ9kf1-n-20" target="oiUOhZs4d3MyHZ9kf1-n-21" edge="1">
          <mxGeometry relative="1" as="geometry" />
        </mxCell>
        <mxCell id="oiUOhZs4d3MyHZ9kf1-n-20" value="GDM流量&lt;br&gt;&lt;div&gt;log-rt-gdm-m14-wireless-online-log&lt;/div&gt;&lt;div&gt;&lt;/div&gt;&lt;div&gt;log-rt-gdm-m14-m-online-log&lt;/div&gt;&lt;div&gt;&lt;/div&gt;&lt;div&gt;log-rt-gdm-online-log&lt;/div&gt;&lt;span&gt; &lt;/span&gt;" style="shape=parallelogram;perimeter=parallelogramPerimeter;whiteSpace=wrap;html=1;fixedSize=1;" parent="1" vertex="1">
          <mxGeometry x="690" y="230" width="230" height="60" as="geometry" />
        </mxCell>
        <mxCell id="oiUOhZs4d3MyHZ9kf1-n-24" style="edgeStyle=orthogonalEdgeStyle;rounded=0;orthogonalLoop=1;jettySize=auto;html=1;exitX=0.5;exitY=1;exitDx=0;exitDy=0;strokeWidth=3;" parent="1" source="oiUOhZs4d3MyHZ9kf1-n-21" target="oiUOhZs4d3MyHZ9kf1-n-23" edge="1">
          <mxGeometry relative="1" as="geometry" />
        </mxCell>
        <mxCell id="oiUOhZs4d3MyHZ9kf1-n-21" value="JRC&lt;br&gt;resource_pv" style="ellipse;whiteSpace=wrap;html=1;aspect=fixed;" parent="1" vertex="1">
          <mxGeometry x="775" y="340" width="60" height="60" as="geometry" />
        </mxCell>
        <mxCell id="oiUOhZs4d3MyHZ9kf1-n-26" style="edgeStyle=orthogonalEdgeStyle;rounded=0;orthogonalLoop=1;jettySize=auto;html=1;exitX=0.5;exitY=1;exitDx=0;exitDy=0;entryX=0.681;entryY=0.042;entryDx=0;entryDy=0;entryPerimeter=0;strokeWidth=4;" parent="1" source="oiUOhZs4d3MyHZ9kf1-n-23" target="oiUOhZs4d3MyHZ9kf1-n-19" edge="1">
          <mxGeometry relative="1" as="geometry">
            <mxPoint x="580" y="580" as="targetPoint" />
          </mxGeometry>
        </mxCell>
        <mxCell id="oiUOhZs4d3MyHZ9kf1-n-23" value="全平台流量&lt;br&gt;ge-resource-pv" style="shape=parallelogram;perimeter=parallelogramPerimeter;whiteSpace=wrap;html=1;fixedSize=1;" parent="1" vertex="1">
          <mxGeometry x="710" y="450" width="190" height="40" as="geometry" />
        </mxCell>
        <mxCell id="q5lQ5qAvXVzz90SRcJgr-5" style="edgeStyle=orthogonalEdgeStyle;rounded=0;jumpSize=3;orthogonalLoop=1;jettySize=auto;html=1;exitX=0.25;exitY=1;exitDx=0;exitDy=0;entryX=0.694;entryY=0.042;entryDx=0;entryDy=0;startArrow=none;startFill=0;startSize=6;endSize=6;strokeWidth=1;entryPerimeter=0;" parent="1" source="oiUOhZs4d3MyHZ9kf1-n-27" target="q5lQ5qAvXVzz90SRcJgr-4" edge="1">
          <mxGeometry relative="1" as="geometry" />
        </mxCell>
        <mxCell id="q5lQ5qAvXVzz90SRcJgr-8" style="edgeStyle=orthogonalEdgeStyle;rounded=0;jumpSize=3;orthogonalLoop=1;jettySize=auto;html=1;exitX=0.5;exitY=1;exitDx=0;exitDy=0;entryX=0.5;entryY=0;entryDx=0;entryDy=0;startArrow=none;startFill=0;startSize=6;endSize=6;strokeWidth=1;" parent="1" source="oiUOhZs4d3MyHZ9kf1-n-27" target="q5lQ5qAvXVzz90SRcJgr-1" edge="1">
          <mxGeometry relative="1" as="geometry" />
        </mxCell>
        <mxCell id="q5lQ5qAvXVzz90SRcJgr-9" style="edgeStyle=orthogonalEdgeStyle;rounded=0;jumpSize=3;orthogonalLoop=1;jettySize=auto;html=1;exitX=0.75;exitY=1;exitDx=0;exitDy=0;entryX=0.5;entryY=0;entryDx=0;entryDy=0;startArrow=none;startFill=0;startSize=6;endSize=6;strokeWidth=1;" parent="1" source="oiUOhZs4d3MyHZ9kf1-n-27" target="q5lQ5qAvXVzz90SRcJgr-2" edge="1">
          <mxGeometry relative="1" as="geometry" />
        </mxCell>
        <mxCell id="oiUOhZs4d3MyHZ9kf1-n-27" value="大促资源包关联流量&lt;br&gt;ge-resource-track" style="shape=parallelogram;perimeter=parallelogramPerimeter;whiteSpace=wrap;html=1;fixedSize=1;" parent="1" vertex="1">
          <mxGeometry x="485" y="680" width="190" height="40" as="geometry" />
        </mxCell>
        <mxCell id="oiUOhZs4d3MyHZ9kf1-n-32" style="edgeStyle=orthogonalEdgeStyle;rounded=0;orthogonalLoop=1;jettySize=auto;html=1;exitX=0;exitY=0.5;exitDx=0;exitDy=0;entryX=1;entryY=0.5;entryDx=0;entryDy=0;" parent="1" source="oiUOhZs4d3MyHZ9kf1-n-30" target="oiUOhZs4d3MyHZ9kf1-n-19" edge="1">
          <mxGeometry relative="1" as="geometry" />
        </mxCell>
        <mxCell id="oiUOhZs4d3MyHZ9kf1-n-30" value="JSF&lt;br&gt;SKU服务" style="whiteSpace=wrap;html=1;" parent="1" vertex="1">
          <mxGeometry x="775" y="590" width="60" height="40" as="geometry" />
        </mxCell>
        <mxCell id="oiUOhZs4d3MyHZ9kf1-n-35" value="JimDB:5003&lt;br&gt;资源位提报维度" style="rounded=0;whiteSpace=wrap;html=1;fillColor=#d5e8d4;strokeColor=#82b366;" parent="1" vertex="1">
          <mxGeometry x="364" y="560" width="100" height="40" as="geometry" />
        </mxCell>
        <mxCell id="oiUOhZs4d3MyHZ9kf1-n-41" style="edgeStyle=orthogonalEdgeStyle;rounded=0;orthogonalLoop=1;jettySize=auto;html=1;exitX=1;exitY=0.5;exitDx=0;exitDy=0;entryX=0.056;entryY=0.681;entryDx=0;entryDy=0;startArrow=classic;startFill=1;entryPerimeter=0;" parent="1" source="oiUOhZs4d3MyHZ9kf1-n-37" target="oiUOhZs4d3MyHZ9kf1-n-19" edge="1">
          <mxGeometry relative="1" as="geometry" />
        </mxCell>
        <mxCell id="oiUOhZs4d3MyHZ9kf1-n-37" value="JimDB:10837&lt;br&gt;SET:点击数据" style="rounded=0;whiteSpace=wrap;html=1;fillColor=#d5e8d4;strokeColor=#82b366;" parent="1" vertex="1">
          <mxGeometry x="364" y="620" width="100" height="40" as="geometry" />
        </mxCell>
        <mxCell id="oiUOhZs4d3MyHZ9kf1-n-39" style="edgeStyle=orthogonalEdgeStyle;rounded=0;orthogonalLoop=1;jettySize=auto;html=1;exitX=0.5;exitY=1;exitDx=0;exitDy=0;entryX=1;entryY=0.5;entryDx=0;entryDy=0;startArrow=classic;startFill=1;" parent="1" source="oiUOhZs4d3MyHZ9kf1-n-38" target="oiUOhZs4d3MyHZ9kf1-n-19" edge="1">
          <mxGeometry relative="1" as="geometry" />
        </mxCell>
        <mxCell id="oiUOhZs4d3MyHZ9kf1-n-38" value="JimDB:5003&lt;br&gt;SKU缓存" style="rounded=0;whiteSpace=wrap;html=1;fillColor=#d5e8d4;strokeColor=#82b366;" parent="1" vertex="1">
          <mxGeometry x="650" y="550" width="100" height="40" as="geometry" />
        </mxCell>
        <mxCell id="oiUOhZs4d3MyHZ9kf1-n-43" style="edgeStyle=orthogonalEdgeStyle;rounded=0;orthogonalLoop=1;jettySize=auto;html=1;exitX=1;exitY=0.5;exitDx=0;exitDy=0;entryX=0;entryY=0.5;entryDx=0;entryDy=0;startArrow=classic;startFill=1;strokeWidth=1;jumpSize=3;startSize=6;endSize=6;" parent="1" source="oiUOhZs4d3MyHZ9kf1-n-42" target="oiUOhZs4d3MyHZ9kf1-n-14" edge="1">
          <mxGeometry relative="1" as="geometry" />
        </mxCell>
        <mxCell id="oiUOhZs4d3MyHZ9kf1-n-42" value="JimDB:5003&lt;br&gt;大促资源位提报" style="rounded=0;whiteSpace=wrap;html=1;fillColor=#d5e8d4;strokeColor=#82b366;" parent="1" vertex="1">
          <mxGeometry x="175" y="370" width="100" height="40" as="geometry" />
        </mxCell>
        <mxCell id="oiUOhZs4d3MyHZ9kf1-n-45" style="edgeStyle=orthogonalEdgeStyle;rounded=0;jumpSize=3;orthogonalLoop=1;jettySize=auto;html=1;exitX=1;exitY=0.5;exitDx=0;exitDy=0;entryX=0;entryY=0.5;entryDx=0;entryDy=0;startArrow=classic;startFill=1;startSize=6;endSize=6;strokeWidth=1;" parent="1" source="oiUOhZs4d3MyHZ9kf1-n-44" target="oiUOhZs4d3MyHZ9kf1-n-2" edge="1">
          <mxGeometry relative="1" as="geometry" />
        </mxCell>
        <mxCell id="oiUOhZs4d3MyHZ9kf1-n-44" value="JimDB:5003&lt;br&gt;通天塔提报" style="rounded=0;whiteSpace=wrap;html=1;fillColor=#d5e8d4;strokeColor=#82b366;" parent="1" vertex="1">
          <mxGeometry x="75" y="180" width="100" height="40" as="geometry" />
        </mxCell>
        <mxCell id="oiUOhZs4d3MyHZ9kf1-n-47" style="edgeStyle=orthogonalEdgeStyle;rounded=0;jumpSize=3;orthogonalLoop=1;jettySize=auto;html=1;exitX=0;exitY=0.5;exitDx=0;exitDy=0;startArrow=classic;startFill=1;startSize=6;endSize=6;strokeWidth=1;entryX=1;entryY=0.5;entryDx=0;entryDy=0;" parent="1" source="oiUOhZs4d3MyHZ9kf1-n-46" target="oiUOhZs4d3MyHZ9kf1-n-10" edge="1">
          <mxGeometry relative="1" as="geometry">
            <mxPoint x="500" y="200" as="targetPoint" />
          </mxGeometry>
        </mxCell>
        <mxCell id="oiUOhZs4d3MyHZ9kf1-n-46" value="JimDB:5003&lt;br&gt;点击维表" style="rounded=0;whiteSpace=wrap;html=1;fillColor=#d5e8d4;strokeColor=#82b366;" parent="1" vertex="1">
          <mxGeometry x="540" y="180" width="100" height="40" as="geometry" />
        </mxCell>
        <mxCell id="jCe4F_X1bsX7e5N38AL6-6" style="edgeStyle=orthogonalEdgeStyle;rounded=0;orthogonalLoop=1;jettySize=auto;html=1;exitX=0.5;exitY=1;exitDx=0;exitDy=0;entryX=0.5;entryY=0;entryDx=0;entryDy=0;" edge="1" parent="1" source="q5lQ5qAvXVzz90SRcJgr-1" target="jCe4F_X1bsX7e5N38AL6-4">
          <mxGeometry relative="1" as="geometry" />
        </mxCell>
        <mxCell id="q5lQ5qAvXVzz90SRcJgr-1" value="JRC&lt;br&gt;流量CK" style="ellipse;whiteSpace=wrap;html=1;aspect=fixed;" parent="1" vertex="1">
          <mxGeometry x="550" y="830" width="60" height="60" as="geometry" />
        </mxCell>
        <mxCell id="jCe4F_X1bsX7e5N38AL6-7" style="edgeStyle=orthogonalEdgeStyle;rounded=0;orthogonalLoop=1;jettySize=auto;html=1;exitX=0.5;exitY=1;exitDx=0;exitDy=0;entryX=0.5;entryY=0;entryDx=0;entryDy=0;" edge="1" parent="1" source="q5lQ5qAvXVzz90SRcJgr-2" target="jCe4F_X1bsX7e5N38AL6-3">
          <mxGeometry relative="1" as="geometry" />
        </mxCell>
        <mxCell id="q5lQ5qAvXVzz90SRcJgr-2" value="JRC&lt;br&gt;流量ES" style="ellipse;whiteSpace=wrap;html=1;aspect=fixed;" parent="1" vertex="1">
          <mxGeometry x="700" y="830" width="60" height="60" as="geometry" />
        </mxCell>
        <mxCell id="q5lQ5qAvXVzz90SRcJgr-7" style="edgeStyle=orthogonalEdgeStyle;rounded=0;jumpSize=3;orthogonalLoop=1;jettySize=auto;html=1;exitX=0.5;exitY=1;exitDx=0;exitDy=0;entryX=0.361;entryY=0.042;entryDx=0;entryDy=0;entryPerimeter=0;startArrow=none;startFill=0;startSize=6;endSize=6;strokeWidth=1;" parent="1" source="q5lQ5qAvXVzz90SRcJgr-3" target="q5lQ5qAvXVzz90SRcJgr-4" edge="1">
          <mxGeometry relative="1" as="geometry" />
        </mxCell>
        <mxCell id="q5lQ5qAvXVzz90SRcJgr-3" value="订单实时流&lt;br&gt;dwt-gdm-m04-ord-det-sku-snapshot" style="shape=parallelogram;perimeter=parallelogramPerimeter;whiteSpace=wrap;html=1;fixedSize=1;" parent="1" vertex="1">
          <mxGeometry x="200" y="680" width="230" height="40" as="geometry" />
        </mxCell>
        <mxCell id="jCe4F_X1bsX7e5N38AL6-5" style="edgeStyle=orthogonalEdgeStyle;rounded=0;orthogonalLoop=1;jettySize=auto;html=1;exitX=0.5;exitY=1;exitDx=0;exitDy=0;entryX=0.5;entryY=0;entryDx=0;entryDy=0;" edge="1" parent="1" source="q5lQ5qAvXVzz90SRcJgr-4" target="jCe4F_X1bsX7e5N38AL6-2">
          <mxGeometry relative="1" as="geometry" />
        </mxCell>
        <mxCell id="q5lQ5qAvXVzz90SRcJgr-4" value="JRC&lt;br&gt;交易" style="ellipse;whiteSpace=wrap;html=1;aspect=fixed;" parent="1" vertex="1">
          <mxGeometry x="375" y="830" width="60" height="60" as="geometry" />
        </mxCell>
        <mxCell id="jCe4F_X1bsX7e5N38AL6-2" value="云ES:&lt;br&gt;ge_dacuResource_order" style="rounded=0;whiteSpace=wrap;html=1;fillColor=#dae8fc;strokeColor=#6c8ebf;" vertex="1" parent="1">
          <mxGeometry x="345" y="930" width="120" height="60" as="geometry" />
        </mxCell>
        <mxCell id="jCe4F_X1bsX7e5N38AL6-3" value="云ES:&lt;br&gt;ge_dacuResource_flow" style="rounded=0;whiteSpace=wrap;html=1;fillColor=#dae8fc;strokeColor=#6c8ebf;" vertex="1" parent="1">
          <mxGeometry x="670" y="930" width="120" height="60" as="geometry" />
        </mxCell>
        <mxCell id="jCe4F_X1bsX7e5N38AL6-4" value="云CK:Pub02&lt;br&gt;resource.resource_flow_all" style="rounded=0;whiteSpace=wrap;html=1;fillColor=#fff2cc;strokeColor=#d6b656;" vertex="1" parent="1">
          <mxGeometry x="520" y="930" width="120" height="60" as="geometry" />
        </mxCell>
        <mxCell id="jCe4F_X1bsX7e5N38AL6-8" value="JimDB:5003&lt;br&gt;点击维表" style="rounded=0;whiteSpace=wrap;html=1;fillColor=#d5e8d4;strokeColor=#82b366;" vertex="1" parent="1">
          <mxGeometry x="1110" y="200" width="100" height="40" as="geometry" />
        </mxCell>
        <mxCell id="jCe4F_X1bsX7e5N38AL6-10" style="edgeStyle=orthogonalEdgeStyle;rounded=0;orthogonalLoop=1;jettySize=auto;html=1;exitX=0.5;exitY=1;exitDx=0;exitDy=0;entryX=0.5;entryY=0;entryDx=0;entryDy=0;" edge="1" parent="1" source="jCe4F_X1bsX7e5N38AL6-9" target="jCe4F_X1bsX7e5N38AL6-8">
          <mxGeometry relative="1" as="geometry" />
        </mxCell>
        <mxCell id="jCe4F_X1bsX7e5N38AL6-9" value="每日推数任务" style="rounded=0;whiteSpace=wrap;html=1;" vertex="1" parent="1">
          <mxGeometry x="1100" y="100" width="120" height="60" as="geometry" />
        </mxCell>
      </root>
    </mxGraphModel>
  </diagram>
</mxfile>
